<svg id="Layer_1" xmlns="http://www.w3.org/2000/svg" viewBox="0 0 137.3 51"><style>.st0{fill:#FFF24C;}</style><path class="st0" d="M22.2 3.8L18.4 0H0v5.3h2.2v10H0v5.2h18.6l3.6-3.6v-4.7l-3-2.3 3-2.3V3.8zm-8.5 11.4h-3.3v-3.4h3.3v3.4zm0-6.5h-3.3V5.3h3.3v3.4zm25-8.7H29l-5.3 5.2v10l5.3 5.2h9.7l5.3-5.2v-10L38.7 0zm-2.9 15.2h-3.7v-10h3.7v10zm25-7.7h-6.6v-3H58v1.8h5.7V0h-4.1l-1.5 1.8L56.5 0h-7l-4.2 4.6v5.1L49 13h7v3h-5v-1.8h-5.7v6.2h4.1l1.5-1.8 1.7 1.8H61l4-4.3v-4.8l-4.2-3.8zm27.4 2.1V2.4L86 0H67.6l-2.2 2.4v7.1h5.5V5.3h1.8v10h-2.2v5.2h12.6v-5.2h-2.2v-10h1.8v4.3h5.5zM104.3 0h-9.7l-5.3 5.2v10l5.3 5.2h9.7l5.3-5.2v-10L104.3 0zm-3 15.2h-3.7v-10h3.7v10zM125.5 0v5.3h2.2v4.9l-5.8-8.3-2.2-1.9h-8.8v5.3h2.2v10h-2.2v5.2H121v-5.2h-2.2v-4.9l5.6 8 2.5 2.2h4.6l1.9-1.9V5.3h2.2V0h-10.1zM29.7 28.7l-5-5H.2v7h2.9V44H.2v7H25l4.8-4.8v-6.3l-4-3 4-3v-5.2zM18.4 44H14v-4.5h4.4V44zm0-8.8H14v-4.5h4.4v4.5zm31-11.5v7h2.2V44H45V30.7h2.6v-7H31.2v7h3V45l6 6H54l6-6V30.7h2.6v-7H49.4zm31.4 7v-7H64v7h3V44h-3v7h16.8v-7h-3V30.7h3zm20.9 7.6V44h-5.4V30.7h3v-7H82.6v7h3V44h-3v7h24.6l3-3.3v-9.5h-8.5z"/><path class="st0" d="M129.8 36.4v-5.7h-2.4V44h2.9v7h-16.8v-7h2.9V30.7H114v5.7h-7.4V27l3-3.3h24.5l3 3.3v9.5"/></svg>