<svg width="156" height="97" viewBox="0 0 156 97" xmlns="http://www.w3.org/2000/svg">
  <g fill="#000" fill-rule="evenodd">
    <path d="M14.474 0v5.268h2.2v9.968h-2.2v5.246h18.57l3.584-3.587v-4.728l-3.016-2.282 3.016-2.254V3.773L32.854 0h-18.38zm10.37 8.664h3.314V5.268h-3.313v3.396zm0 6.573h3.314v-3.394h-3.313v3.394zM43.546 0l-5.35 5.242v9.994l5.35 5.246h9.666l5.346-5.246V5.242L53.212 0h-9.666zm2.985 15.236h3.696V5.242H46.53v9.994zM74.137 0l-1.492 1.79L70.96 0h-6.975L59.75 4.562v5.055l3.693 3.394h6.95V16h-4.914v-1.766h-5.73v6.25h4.1l1.492-1.795 1.685 1.795h8.414l3.964-4.294v-4.78l-4.18-3.94h-6.625V4.48h3.91v1.768h5.727V0M82.09 0l-2.253 2.44v7.12h5.538V5.267h1.792v9.968h-2.2v5.246h12.57v-5.246h-2.2V5.268h1.794v4.29h5.592V2.442L100.47 0M109.1 0l-5.35 5.242v9.994l5.35 5.246h9.662l5.348-5.246V5.242L118.762 0H109.1zm2.984 15.236h3.693V5.242h-3.693v9.994zM139.933 0v5.268h2.2v4.89l-5.782-8.26L134.18 0h-8.77v5.268h2.198v9.968h-2.2v5.246h10.103v-5.246h-2.227V10.32l5.594 7.987 2.47 2.175h4.59l1.87-1.875V5.267h2.198V0M28.48 44.013h4.417v-4.527H28.48v4.527zm0-8.764h4.417v-4.526H28.48v4.525zM39.41 51H14.655v-6.99h2.933V30.725h-2.933v-7.026h24.504l5.03 5.033v5.143L40.17 36.88l4.017 3.042v6.302l-4.776 4.778zM74.408 30.725V44.99L68.363 51h-13.75l-6.01-6.01V30.725h-2.966v-7.028h16.428v7.028H59.46v13.29h6.66v-13.29h-2.245v-7.028h13.102v7.028M78.424 51v-6.986h2.97v-13.29h-2.97v-7.027h16.793v7.028H92.25v13.29h2.967V51M121.672 51H97.027v-6.986h2.967v-13.29h-2.967v-7.027h16.792v7.028h-2.97v13.29h5.357v-5.722h8.47v9.452"/>
    <path d="M144.29 36.445v-5.72h-2.39v13.288h2.93v6.99h-16.755v-6.99h2.93V30.725h-2.388v5.72h-7.383v-9.488l3.004-3.26h24.502l3.002 3.26v9.488M0 96.717h11.99v-10.11H0M26.145 54.836L15.21 65.556v20.44L26.144 96.72h19.762l10.935-10.72v-20.44L45.907 54.835H26.145zm6.106 31.16h7.55v-20.44h-7.55v20.44zM59.508 54.836v10.776h4.552v20.385h-4.552v10.72H84.1v-10.72h-3.39v-6.944h6.778v13.052l4.605 4.613h16.598v-9.22h-3.885V79.72l-6.16-4.666 6.16-4.61v-8.667l-6.937-6.94h-38.36zM80.71 72.554h6.778v-6.942H80.71v6.942zM140.112 54.836l-3.11 3.886-3.107-3.886h-13.49l-10.937 10.72v20.44l10.937 10.722h13.656l3.498-4.222 3.44 4.222h9.384v-14.61h4.83v-7.22h-23.76v7.22h4.163V86h-9.047v-20.44h10.435v5.72h12.99V54.835"/>
  </g>
</svg>