<?xml version="1.0" encoding="UTF-8" standalone="no"?>
<svg width="156px" height="97px" viewBox="0 0 156 97" version="1.1" xmlns="http://www.w3.org/2000/svg" xmlns:xlink="http://www.w3.org/1999/xlink">
    <!-- Generator: Sketch 3.8.2 (29753) - http://www.bohemiancoding.com/sketch -->
    <title>Page 1 Copy</title>
    <desc>Created with Sketch.</desc>
    <defs></defs>
    <g id="Page-1" stroke="none" stroke-width="1" fill="none" fill-rule="evenodd">
        <g id="Desktop-Copy-34" transform="translate(-15.000000, -30.000000)" fill="#000000">
            <g id="Page-1-Copy" transform="translate(15.000000, 30.000000)">
                <path d="M14.4741225,-0.000277142857 L14.4741225,5.26820857 L16.6742638,5.26820857 L16.6742638,15.2361133 L14.4741225,15.2361133 L14.4741225,20.4815038 L33.0437576,20.4815038 L36.6278736,16.8952752 L36.6278736,12.1672181 L33.6124891,9.88540857 L36.6278736,7.63131333 L36.6278736,3.77163714 L32.853565,-0.000277142857 L14.4741225,-0.000277142857 Z M24.8451617,8.66413238 L28.1578376,8.66413238 L28.1578376,5.26820857 L24.8451617,5.26820857 L24.8451617,8.66413238 Z M24.8451617,15.2370371 L28.1578376,15.2370371 L28.1578376,11.842961 L24.8451617,11.842961 L24.8451617,15.2370371 Z" id="Fill-1"></path>
                <path d="M43.5461775,-0.000277142857 L38.1967783,5.2423419 L38.1967783,15.2361133 L43.5461775,20.4815038 L53.211842,20.4815038 L58.5584713,15.2361133 L58.5584713,5.2423419 L53.211842,-0.000277142857 L43.5461775,-0.000277142857 Z M46.5310942,15.2361133 L50.226002,15.2361133 L50.226002,5.2423419 L46.5310942,5.2423419 L46.5310942,15.2361133 Z" id="Fill-2"></path>
                <polygon id="Fill-3" points="74.1371885 -0.000277142857 72.6451918 1.79098952 70.9611558 -0.000277142857 63.9849632 -0.000277142857 59.7499452 4.5624181 59.7499452 9.61658 63.4430064 13.0106562 70.3924244 13.0106562 70.3924244 15.9982562 65.4788064 15.9982562 65.4788064 14.2319324 59.7499452 14.2319324 59.7499452 20.4815038 63.8492432 20.4815038 65.3421632 18.6865419 67.0271224 20.4815038 75.4408391 20.4815038 79.4044171 16.1876371 79.4044171 11.4078467 75.2229485 7.46872286 68.5994432 7.46872286 68.5994432 4.47835143 72.5094718 4.47835143 72.5094718 6.24559905 78.2374097 6.24559905 78.2374097 -0.000277142857"></polygon>
                <polygon id="Fill-4" points="82.0892726 -0.000277142857 79.8365052 2.44135143 79.8365052 9.55930381 85.3751738 9.55930381 85.3751738 5.26820857 87.1672318 5.26820857 87.1672318 15.2361133 84.9670905 15.2361133 84.9670905 20.4815038 97.5364244 20.4815038 97.5364244 15.2361133 95.3372064 15.2361133 95.3372064 5.26820857 97.1311109 5.26820857 97.1311109 9.55930381 102.722406 9.55930381 102.722406 2.44135143 100.468715 -0.000277142857"></polygon>
                <path d="M109.098937,-0.000277142857 L103.749538,5.2423419 L103.749538,15.2361133 L109.098937,20.4815038 L118.761832,20.4815038 L124.110308,15.2361133 L124.110308,5.2423419 L118.761832,-0.000277142857 L109.098937,-0.000277142857 Z M112.083854,15.2361133 L115.776915,15.2361133 L115.776915,5.2423419 L112.083854,5.2423419 L112.083854,15.2361133 Z" id="Fill-5"></path>
                <polygon id="Fill-6" points="139.933414 -0.000277142857 139.933414 5.26820857 142.131708 5.26820857 142.131708 10.1570086 136.351144 1.89907524 134.179624 -0.000277142857 125.408604 -0.000277142857 125.408604 5.26820857 127.607822 5.26820857 127.607822 15.2361133 125.408604 15.2361133 125.408604 20.4815038 135.510973 20.4815038 135.510973 15.2361133 133.283134 15.2361133 133.283134 10.3205229 138.877198 18.3068562 141.346009 20.4815038 145.935561 20.4815038 147.80702 18.6070943 147.80702 5.26820857 150.005315 5.26820857 150.005315 -0.000277142857"></polygon>
                <path d="M28.4790416,44.0130571 L32.8968661,44.0130571 L32.8968661,39.4863905 L28.4790416,39.4863905 L28.4790416,44.0130571 Z M28.4790416,35.2488762 L32.8968661,35.2488762 L32.8968661,30.7240571 L28.4790416,30.7240571 L28.4790416,35.2488762 Z M39.4105029,51.0016762 L14.6540669,51.0016762 L14.6540669,44.0130571 L17.5872808,44.0130571 L17.5872808,30.7240571 L14.6540669,30.7240571 L14.6540669,23.6975619 L39.1575282,23.6975619 L44.1865543,28.7314 L44.1865543,33.8733238 L40.1712735,36.8794 L44.1865543,39.9215048 L44.1865543,46.2237333 L39.4105029,51.0016762 Z" id="Fill-7"></path>
                <polygon id="Fill-8" points="74.4076129 30.724519 74.4076129 44.9899857 68.3629949 51.0012143 54.6128047 51.0012143 48.6032709 44.9899857 48.6032709 30.724519 45.6368194 30.724519 45.6368194 23.6971 62.0654023 23.6971 62.0654023 30.724519 59.4599476 30.724519 59.4599476 44.013519 66.1194602 44.013519 66.1194602 30.724519 63.8750023 30.724519 63.8750023 23.6971 76.9770602 23.6971 76.9770602 30.724519"></polygon>
                <polygon id="Fill-9" points="78.4243709 51.001399 78.4243709 44.0137038 81.3926689 44.0137038 81.3926689 30.7247038 78.4243709 30.7247038 78.4243709 23.6972848 95.2167203 23.6972848 95.2167203 30.7247038 92.2493456 30.7247038 92.2493456 44.0137038 95.2167203 44.0137038 95.2167203 51.001399"></polygon>
                <polygon id="Fill-10" points="121.67178 51.001399 97.0270589 51.001399 97.0270589 44.0137038 99.9944336 44.0137038 99.9944336 30.7247038 97.0270589 30.7247038 97.0270589 23.6972848 113.819408 23.6972848 113.819408 30.7247038 110.85111 30.7247038 110.85111 44.0137038 116.206972 44.0137038 116.206972 38.2925514 124.677008 38.2925514 124.677008 47.7449705"></polygon>
                <polygon id="Fill-11" points="144.290856 36.4451171 144.290856 30.7248886 141.899599 30.7248886 141.899599 44.0129648 144.830967 44.0129648 144.830967 51.0015838 128.074625 51.0015838 128.074625 44.0129648 131.004145 44.0129648 131.004145 30.7248886 128.616581 30.7248886 128.616581 36.4451171 121.234152 36.4451171 121.234152 26.9566695 124.238457 23.6974695 148.740072 23.6974695 151.741608 26.9566695 151.741608 36.4451171"></polygon>
                <polygon id="Fill-12" points="0 96.7173143 11.9895233 96.7173143 11.9895233 86.6080667 0 86.6080667"></polygon>
                <path d="M26.1446576,54.8357629 L15.2085801,65.5565724 L15.2085801,85.9967819 L26.1446576,96.7175914 L45.9071515,96.7175914 L56.8423058,85.9967819 L56.8423058,65.5565724 L45.9071515,54.8357629 L26.1446576,54.8357629 Z M32.2511344,85.9967819 L39.8006748,85.9967819 L39.8006748,65.5565724 L32.2511344,65.5565724 L32.2511344,85.9967819 Z" id="Fill-13"></path>
                <path d="M59.5076804,54.8357629 L59.5076804,65.612001 L64.0603016,65.612001 L64.0603016,85.9967819 L59.5076804,85.9967819 L59.5076804,96.7175914 L84.1006984,96.7175914 L84.1006984,85.9967819 L80.7113914,85.9967819 L80.7113914,79.0525057 L87.4881588,79.0525057 L87.4881588,92.1050105 L92.0934061,96.7175914 L108.690947,96.7175914 L108.690947,87.4979724 L104.804923,87.4979724 L104.804923,79.72042 L98.6439735,75.0542581 L104.804923,70.4453724 L104.804923,61.7772676 L97.8675073,54.8357629 L59.5076804,54.8357629 Z M80.7113914,72.5544295 L87.4881588,72.5544295 L87.4881588,65.612001 L80.7113914,65.612001 L80.7113914,72.5544295 Z" id="Fill-14"></path>
                <polygon id="Fill-15" points="140.112065 54.8357629 137.003431 58.7222295 133.894797 54.8357629 120.404967 54.8357629 109.467967 65.5565724 109.467967 85.9967819 120.404967 96.7175914 134.060985 96.7175914 137.558314 92.4957819 140.9984 96.7175914 150.381545 96.7175914 150.381545 82.1093914 155.211146 82.1093914 155.211146 74.8879724 131.451837 74.8879724 131.451837 82.1093914 135.61484 82.1093914 135.61484 85.9967819 126.567763 85.9967819 126.567763 65.5565724 137.003431 65.5565724 137.003431 71.276801 149.991927 71.276801 149.991927 54.8357629"></polygon>
            </g>
        </g>
    </g>
</svg>