<svg xmlns="http://www.w3.org/2000/svg" viewBox="0 0 30 30"><defs><style>.a{fill:#010201;}</style></defs><title>icon_link-out_circle</title><path class="a" d="M15,30A15,15,0,1,1,30,15,15,15,0,0,1,15,30ZM15,0.5A14.5,14.5,0,1,0,29.5,15,14.52,14.52,0,0,0,15,.5Z"/><path class="a" d="M19.56,21.44h-11v-11h5a0.5,0.5,0,0,1,0,1h-4v9h9v-4a0.5,0.5,0,1,1,1,0v5Z"/><path class="a" d="M21.06,14.94a0.5,0.5,0,0,1-.5-0.5v-5h-5a0.5,0.5,0,0,1,0-1h6v6A0.5,0.5,0,0,1,21.06,14.94Z"/><path class="a" d="M12.56,17.94a0.5,0.5,0,0,1-.35-0.85l8.5-8.5a0.5,0.5,0,0,1,.71.71l-8.5,8.5A0.5,0.5,0,0,1,12.56,17.94Z"/></svg>