<?xml version="1.0" encoding="utf-8"?>
<!-- Generator: Adobe Illustrator 19.2.1, SVG Export Plug-In . SVG Version: 6.00 Build 0)  -->
<!DOCTYPE svg PUBLIC "-//W3C//DTD SVG 1.1//EN" "http://www.w3.org/Graphics/SVG/1.1/DTD/svg11.dtd">
<svg version="1.1" id="Layer_1" xmlns="http://www.w3.org/2000/svg" xmlns:xlink="http://www.w3.org/1999/xlink" x="0px" y="0px"
	 viewBox="0 0 11 14" style="enable-background:new 0 0 11 14;" xml:space="preserve">
<style type="text/css">
	.st0{fill:#010201;}
	.st1{fill:#FFFFFF;}
</style>
<title>Page 1 Copy 20</title>
<desc>Created with Sketch.</desc>
<g id="Page-1">
	<g id="Desktop-Copy-31" transform="translate(-745.000000, -453.000000)">
		<g id="Group-6" transform="translate(746.000000, 444.000000)">
			<g id="Page-1-Copy-20" transform="translate(0.000000, 9.000000)">
				<path class="st0" d="M4.9,13.6L4.9,13.6c-0.2,0-0.3-0.1-0.4-0.2C2.5,10.6,0,6.9,0,4.9C0,2.2,2.2,0,4.9,0s4.9,2.2,4.9,4.9
					c0,2.1-2.8,6.2-4.5,8.5C5.2,13.5,5.1,13.6,4.9,13.6z"/>
				<path class="st1" d="M4.9,3.3C4,3.3,3.3,4,3.3,4.9S4,6.6,4.9,6.6s1.6-0.7,1.6-1.6S5.8,3.3,4.9,3.3z"/>
			</g>
		</g>
	</g>
</g>
</svg>
