<?xml version="1.0" encoding="UTF-8" standalone="no"?>
<svg width="11px" height="14px" viewBox="0 0 11 14" version="1.1" xmlns="http://www.w3.org/2000/svg" xmlns:xlink="http://www.w3.org/1999/xlink">
    <!-- Generator: Sketch 3.8.3 (29802) - http://www.bohemiancoding.com/sketch -->
    <title>Page 1 Copy 20</title>
    <desc>Created with Sketch.</desc>
    <defs></defs>
    <g id="Page-1" stroke="none" stroke-width="1" fill="none" fill-rule="evenodd">
        <g id="Desktop-Copy-31" transform="translate(-745.000000, -453.000000)">
            <g id="Group-6" transform="translate(746.000000, 444.000000)">
                <g id="Page-1-Copy-20" transform="translate(0.000000, 9.000000)">
                    <path d="M4.9186,0.5 C2.4766,0.5 0.4996,2.477 0.4996,4.919 C0.4996,7.07 3.9886,11.837 4.9186,13.087 C5.8486,11.837 9.3376,7.041 9.3376,4.919 C9.3376,2.477 7.3606,0.5 4.9186,0.5" id="Fill-1" fill="#FEFEFE"></path>
                    <path d="M4.9186,0.5 C2.4766,0.5 0.4996,2.477 0.4996,4.919 C0.4996,7.07 3.9886,11.837 4.9186,13.087 C5.8486,11.837 9.3376,7.041 9.3376,4.919 C9.3376,2.477 7.3606,0.5 4.9186,0.5 L4.9186,0.5 Z" id="Stroke-3" stroke="#010201" stroke-linecap="round" stroke-linejoin="round"></path>
                    <path d="M4.9186,7.0615 C3.7416,7.0615 2.7756,6.0965 2.7756,4.9185 C2.7756,3.7415 3.7416,2.7755 4.9186,2.7755 C6.0956,2.7755 7.0616,3.7415 7.0616,4.9185 C7.0616,6.0965 6.0956,7.0615 4.9186,7.0615 L4.9186,7.0615 Z" id="Stroke-5" stroke="#010201" stroke-linecap="round" stroke-linejoin="round"></path>
                </g>
            </g>
        </g>
    </g>
</svg>