<svg xmlns="http://www.w3.org/2000/svg" viewBox="0 0 30 30"><defs><style>.a{fill:#010201;}.b{fill:#fff;}</style></defs><title>icon_link-out_circle_black</title><path class="a" d="M15,30A15,15,0,1,1,30,15,15,15,0,0,1,15,30Z"/><path class="b" d="M20,21H9V10h4.56a0.5,0.5,0,0,1,0,1H10v9h9V16.44a0.5,0.5,0,1,1,1,0V21Z"/><path class="b" d="M21.5,14.94a0.5,0.5,0,0,1-.5-0.5V9H15.56a0.5,0.5,0,0,1,0-1H22v6.44A0.5,0.5,0,0,1,21.5,14.94Z"/><path class="b" d="M12.56,17.94a0.5,0.5,0,0,1-.35-0.85l8.5-8.5a0.5,0.5,0,0,1,.71.71l-8.5,8.5A0.5,0.5,0,0,1,12.56,17.94Z"/></svg>