<?xml version="1.0" encoding="UTF-8" standalone="no"?>
<svg width="14px" height="10px" viewBox="0 0 14 10" version="1.1" xmlns="http://www.w3.org/2000/svg" xmlns:xlink="http://www.w3.org/1999/xlink">
    <!-- Generator: Sketch 3.8.3 (29802) - http://www.bohemiancoding.com/sketch -->
    <title>Page 1 Copy 18</title>
    <desc>Created with Sketch.</desc>
    <defs></defs>
    <g id="Page-1" stroke="none" stroke-width="1" fill="none" fill-rule="evenodd">
        <g id="Desktop-Copy-31" transform="translate(-456.000000, -333.000000)" fill="#020302">
            <g id="Group-4-Copy-6" transform="translate(434.000000, 331.000000)">
                <path d="M22,12.0004508 L35.2579223,12.0004508 L35.2579223,2 L22,2 L22,12.0004508 Z M23.5684122,11.0750478 L33.6895101,11.0750478 L30.35912,7.66643598 L29.7280429,8.30016466 C29.4549297,8.57327786 29.0651468,8.72972134 28.6541512,8.72972134 C28.6514996,8.72972134 28.648848,8.72839555 28.6475222,8.72839555 C28.2352008,8.72706976 27.8427663,8.56797469 27.5709789,8.29088412 L26.9306213,7.64257172 L23.5684122,11.0750478 Z M22.925403,3.58829909 L22.925403,10.4108259 L26.2796573,6.98497877 L22.925403,3.58829909 Z M31.010084,7.00884303 L34.3325193,10.4108259 L34.3325193,3.66519504 L31.010084,7.00884303 Z M23.5710638,2.92540297 L28.2298977,7.64257172 C28.3306579,7.74465772 28.4844498,7.80299258 28.6501738,7.80299258 L28.6528254,7.80299258 C28.8172236,7.80299258 28.9736671,7.74598351 29.0717757,7.6465491 L33.7624286,2.92540297 L23.5710638,2.92540297 Z" id="Page-1-Copy-18"></path>
            </g>
        </g>
    </g>
</svg>